<svg id="Capa_1" enable-background="new 0 0 512 512" height="512" viewBox="0 0 512 512" width="512" xmlns="http://www.w3.org/2000/svg"><g><path d="m271 30v295l15 15-15 15v157c133.101 0 241-107.899 241-241s-107.899-241-241-241z" fill="#ffd959"/><path d="m0 241c0 133.101 107.899 241 241 241v-90l-60-83 60-83v-226c-133.101 0-241 107.899-241 241z" fill="#ffeaa6"/><path d="m106 151h90v30h-90z" fill="#62676f"/><path d="m241 226v65.96l-118.772 50.031c-29.221-29.924-47.228-70.852-47.228-115.991z" fill="#ff9d7d"/><path d="m241 291.96v100.04c-46.546 0-88.618-19.15-118.772-50.009 30.143-30.858 72.226-50.031 118.772-50.031z" fill="#ff5253"/><path d="m346 205v45c0 16.569 13.431 30 30 30s30-13.431 30-30v-45c0-16.569-13.431-30-30-30s-30 13.431-30 30z" fill="#414851"/><path d="m271 325h90v30h-90z" fill="#ffc40f"/></g></svg>